<?xml version="1.0" encoding="UTF-8" standalone="no"?>
<!-- Created with Inkscape (http://www.inkscape.org/) -->

<svg
   width="145.50409mm"
   height="145.5094mm"
   viewBox="0 0 145.50409 145.5094"
   version="1.1"
   id="svg1"
   xml:space="preserve"
   inkscape:version="1.4.2 (ebf0e94, 2025-05-08)"
   sodipodi:docname="movary-logo.svg"
   xmlns:inkscape="http://www.inkscape.org/namespaces/inkscape"
   xmlns:sodipodi="http://sodipodi.sourceforge.net/DTD/sodipodi-0.dtd"
   xmlns="http://www.w3.org/2000/svg"
   xmlns:svg="http://www.w3.org/2000/svg"><sodipodi:namedview
     id="namedview1"
     pagecolor="#ffffff"
     bordercolor="#666666"
     borderopacity="1.0"
     inkscape:showpageshadow="2"
     inkscape:pageopacity="0.0"
     inkscape:pagecheckerboard="0"
     inkscape:deskcolor="#d1d1d1"
     inkscape:document-units="mm"
     inkscape:zoom="1.4396184"
     inkscape:cx="247.63507"
     inkscape:cy="277.85141"
     inkscape:window-width="1920"
     inkscape:window-height="1011"
     inkscape:window-x="0"
     inkscape:window-y="0"
     inkscape:window-maximized="1"
     inkscape:current-layer="layer1" /><defs
     id="defs1"><inkscape:path-effect
       effect="mirror_symmetry"
       start_point="127.228,125.7985"
       end_point="127.228,210.6605"
       center_point="127.228,168.2295"
       id="path-effect1"
       is_visible="true"
       lpeversion="1.2"
       lpesatellites=""
       mode="free"
       discard_orig_path="false"
       fuse_paths="false"
       oposite_fuse="false"
       split_items="false"
       split_open="false"
       link_styles="false" /></defs><g
     inkscape:label="Layer 1"
     inkscape:groupmode="layer"
     id="layer1"
     transform="translate(-32.236704,-95.370177)"><path
       id="path2"
       style="fill:#212529;fill-opacity:1;stroke:none;stroke-width:2.68835"
       d="m 103.38119,100.15587 c -16.231577,0.33552 -32.245045,6.76273 -44.205725,17.74039 -10.863362,9.88486 -18.386597,23.372 -21.026884,37.82429 -2.749941,14.69704 -0.479531,30.28068 6.416066,43.55485 6.402081,12.46641 16.758276,22.86144 29.232564,29.2588 12.322812,6.38766 26.622839,8.87163 40.374579,6.96605 14.15044,-1.90836 27.64309,-8.40363 37.92008,-18.32484 9.83767,-9.42557 16.73811,-21.86582 19.48307,-35.21459 2.86374,-13.7247 1.35499,-28.32338 -4.30793,-41.15449 -5.88839,-13.47284 -16.27354,-24.92747 -29.13825,-32.05547 -10.54261,-5.88585 -22.67392,-8.910774 -34.74757,-8.59499 z" /><path
       style="fill:#ffffff;stroke:#000000;stroke-width:0.264583px;stroke-linecap:butt;stroke-linejoin:miter;stroke-opacity:1"
       d="M 127.228,149.51567 97.727759,127.48794 c -1.111878,-0.91103 -1.684247,-1.68944 -4.418544,-1.68944 -3.497517,0 -6.172962,3.20283 -6.172962,5.78309 l -0.06498,72.97092 c 0,0 0.358351,6.10799 6.367899,6.10799 6.009548,0 6.692788,-5.58816 6.692788,-5.58816 l -0.12995,-52.81132 c 0,-1.16096 1.57181,-4.14692 5.07645,-2.85906 0,0 10.69964,4.8511 16.49643,7.52127 1.17631,0.64301 1.55949,1.95206 1.55949,2.59914 v 44.80272 c 0,0.69254 0.57878,1.49451 1.23459,1.49451 h 2.85903 m 0,-56.30393 29.50024,-22.02773 c 1.11188,-0.91103 1.68425,-1.68944 4.41854,-1.68944 3.49752,0 6.17297,3.20283 6.17297,5.78309 l 0.065,72.97092 c 0,0 -0.35835,6.10799 -6.3679,6.10799 -6.00955,0 -6.69279,-5.58816 -6.69279,-5.58816 l 0.12995,-52.81132 c 0,-1.16096 -1.57181,-4.14692 -5.07645,-2.85906 0,0 -10.69964,4.8511 -16.49643,7.52127 -1.17631,0.64301 -1.55949,1.95206 -1.55949,2.59914 v 44.80272 c 0,0.69254 -0.57878,1.49451 -1.23459,1.49451 H 127.228"
       id="path1"
       sodipodi:nodetypes="cccsczcccccccc"
       inkscape:original-d="M 127.228,149.51567 97.727759,127.48794 c -1.111878,-0.91103 -1.684247,-1.68944 -4.418544,-1.68944 -3.497517,0 -6.172962,3.20283 -6.172962,5.78309 l -0.06498,72.97092 c 0,0 0.358351,6.10799 6.367899,6.10799 6.009548,0 6.692788,-5.58816 6.692788,-5.58816 l -0.12995,-52.81132 c 0,-1.16096 1.57181,-4.14692 5.07645,-2.85906 0,0 10.69964,4.8511 16.49643,7.52127 1.17631,0.64301 1.55949,1.95206 1.55949,2.59914 v 44.80272 c 0,0.69254 0.57878,1.49451 1.23459,1.49451 h 2.85903"
       inkscape:path-effect="#path-effect1"
       transform="translate(-22.228)" /></g></svg>
